<svg data-v-423bf9ae="" xmlns="http://www.w3.org/2000/svg" viewBox="0 0 189.94565697665027 60" class="font"><!----><!----><!----><g data-v-423bf9ae="" id="2e6aebc8-41ea-41d5-94a2-00ee36f82c0e" fill="white" transform="matrix(5.434782627474683,0,0,5.434782627474683,-3.2608706406361705,-11.84782720596143)"><path d="M3.58 12.11L3.58 12.11L3.58 12.11Q4.05 12.11 4.40 12.09L4.40 12.09L4.40 12.09Q4.76 12.07 5.00 12.01L5.00 12.01L5.00 9.84L5.00 9.84Q4.86 9.77 4.54 9.72L4.54 9.72L4.54 9.72Q4.23 9.67 3.78 9.67L3.78 9.67L3.78 9.67Q3.49 9.67 3.16 9.72L3.16 9.72L3.16 9.72Q2.83 9.76 2.56 9.89L2.56 9.89L2.56 9.89Q2.28 10.02 2.10 10.25L2.10 10.25L2.10 10.25Q1.92 10.49 1.92 10.86L1.92 10.86L1.92 10.86Q1.92 11.56 2.37 11.84L2.37 11.84L2.37 11.84Q2.81 12.11 3.58 12.11ZM3.47 5.59L3.47 5.59L3.47 5.59Q4.26 5.59 4.79 5.79L4.79 5.79L4.79 5.79Q5.33 5.99 5.66 6.36L5.66 6.36L5.66 6.36Q5.99 6.73 6.13 7.25L6.13 7.25L6.13 7.25Q6.27 7.76 6.27 8.37L6.27 8.37L6.27 12.92L6.27 12.92Q6.10 12.95 5.80 13.00L5.80 13.00L5.80 13.00Q5.50 13.05 5.12 13.09L5.12 13.09L5.12 13.09Q4.75 13.13 4.30 13.17L4.30 13.17L4.30 13.17Q3.86 13.20 3.43 13.20L3.43 13.20L3.43 13.20Q2.81 13.20 2.30 13.08L2.30 13.08L2.30 13.08Q1.78 12.95 1.40 12.68L1.40 12.68L1.40 12.68Q1.02 12.40 0.81 11.96L0.81 11.96L0.81 11.96Q0.60 11.51 0.60 10.88L0.60 10.88L0.60 10.88Q0.60 10.28 0.85 9.84L0.85 9.84L0.85 9.84Q1.09 9.41 1.51 9.14L1.51 9.14L1.51 9.14Q1.93 8.88 2.49 8.75L2.49 8.75L2.49 8.75Q3.05 8.62 3.67 8.62L3.67 8.62L3.67 8.62Q3.86 8.62 4.07 8.64L4.07 8.64L4.07 8.64Q4.28 8.67 4.47 8.70L4.47 8.70L4.47 8.70Q4.66 8.74 4.80 8.76L4.80 8.76L4.80 8.76Q4.94 8.79 5.00 8.81L5.00 8.81L5.00 8.44L5.00 8.44Q5.00 8.12 4.93 7.80L4.93 7.80L4.93 7.80Q4.86 7.49 4.68 7.25L4.68 7.25L4.68 7.25Q4.49 7 4.18 6.85L4.18 6.85L4.18 6.85Q3.86 6.71 3.36 6.71L3.36 6.71L3.36 6.71Q2.72 6.71 2.23 6.80L2.23 6.80L2.23 6.80Q1.75 6.89 1.51 6.99L1.51 6.99L1.36 5.91L1.36 5.91Q1.61 5.80 2.20 5.69L2.20 5.69L2.20 5.69Q2.79 5.59 3.47 5.59ZM13.13 11.91L13.13 7.31L13.13 7.31Q12.89 7.11 12.45 6.93L12.45 6.93L12.45 6.93Q12.00 6.75 11.47 6.75L11.47 6.75L11.47 6.75Q10.91 6.75 10.51 6.95L10.51 6.95L10.51 6.95Q10.11 7.15 9.86 7.51L9.86 7.51L9.86 7.51Q9.60 7.87 9.49 8.36L9.49 8.36L9.49 8.36Q9.38 8.85 9.38 9.41L9.38 9.41L9.38 9.41Q9.38 10.68 10.01 11.38L10.01 11.38L10.01 11.38Q10.64 12.07 11.69 12.07L11.69 12.07L11.69 12.07Q12.22 12.07 12.58 12.02L12.58 12.02L12.58 12.02Q12.94 11.97 13.13 11.91L13.13 11.91ZM13.13 6.09L13.13 2.41L14.43 2.18L14.43 12.84L14.43 12.84Q13.99 12.96 13.29 13.09L13.29 13.09L13.29 13.09Q12.59 13.22 11.68 13.22L11.68 13.22L11.68 13.22Q10.84 13.22 10.16 12.95L10.16 12.95L10.16 12.95Q9.49 12.68 9.02 12.19L9.02 12.19L9.02 12.19Q8.54 11.70 8.28 11.00L8.28 11.00L8.28 11.00Q8.02 10.29 8.02 9.41L8.02 9.41L8.02 9.41Q8.02 8.57 8.24 7.87L8.24 7.87L8.24 7.87Q8.46 7.17 8.88 6.66L8.88 6.66L8.88 6.66Q9.30 6.16 9.90 5.88L9.90 5.88L9.90 5.88Q10.51 5.60 11.30 5.60L11.30 5.60L11.30 5.60Q11.93 5.60 12.41 5.77L12.41 5.77L12.41 5.77Q12.89 5.94 13.13 6.09L13.13 6.09ZM17.98 5.77L17.98 13.05L16.67 13.05L16.67 5.77L17.98 5.77ZM17.32 4.45L17.32 4.45L17.32 4.45Q16.97 4.45 16.72 4.22L16.72 4.22L16.72 4.22Q16.48 3.99 16.48 3.60L16.48 3.60L16.48 3.60Q16.48 3.21 16.72 2.97L16.72 2.97L16.72 2.97Q16.97 2.74 17.32 2.74L17.32 2.74L17.32 2.74Q17.67 2.74 17.91 2.97L17.91 2.97L17.91 2.97Q18.16 3.21 18.16 3.60L18.16 3.60L18.16 3.60Q18.16 3.99 17.91 4.22L17.91 4.22L17.91 4.22Q17.67 4.45 17.32 4.45ZM22.58 12.10L22.40 13.19L22.40 13.19Q21.20 13.16 20.69 12.67L20.69 12.67L20.69 12.67Q20.19 12.18 20.19 11.14L20.19 11.14L20.19 2.41L21.49 2.18L21.49 10.93L21.49 10.93Q21.49 11.26 21.55 11.47L21.55 11.47L21.55 11.47Q21.60 11.68 21.73 11.80L21.73 11.80L21.73 11.80Q21.85 11.93 22.06 11.99L22.06 11.99L22.06 11.99Q22.27 12.05 22.58 12.10L22.58 12.10ZM25.26 3.51L25.26 5.77L28.01 5.77L28.01 6.86L25.26 6.86L25.26 10.22L25.26 10.22Q25.26 10.77 25.34 11.12L25.34 11.12L25.34 11.12Q25.42 11.48 25.59 11.68L25.59 11.68L25.59 11.68Q25.76 11.89 26.01 11.97L26.01 11.97L26.01 11.97Q26.26 12.05 26.60 12.05L26.60 12.05L26.60 12.05Q27.19 12.05 27.54 11.92L27.54 11.92L27.54 11.92Q27.90 11.79 28.04 11.73L28.04 11.73L28.29 12.81L28.29 12.81Q28.10 12.91 27.61 13.05L27.61 13.05L27.61 13.05Q27.12 13.20 26.49 13.20L26.49 13.20L26.49 13.20Q25.75 13.20 25.26 13.01L25.26 13.01L25.26 13.01Q24.78 12.82 24.49 12.45L24.49 12.45L24.49 12.45Q24.19 12.07 24.07 11.52L24.07 11.52L24.07 11.52Q23.95 10.96 23.95 10.23L23.95 10.23L23.95 3.74L25.26 3.51ZM30.97 13.05L29.67 13.05L29.67 2.41L30.97 2.18L30.97 5.91L30.97 5.91Q31.33 5.77 31.75 5.69L31.75 5.69L31.75 5.69Q32.16 5.61 32.56 5.61L32.56 5.61L32.56 5.61Q33.43 5.61 34.01 5.86L34.01 5.86L34.01 5.86Q34.58 6.10 34.92 6.54L34.92 6.54L34.92 6.54Q35.27 6.99 35.41 7.60L35.41 7.60L35.41 7.60Q35.55 8.22 35.55 8.96L35.55 8.96L35.55 13.05L34.24 13.05L34.24 9.24L34.24 9.24Q34.24 8.57 34.15 8.09L34.15 8.09L34.15 8.09Q34.06 7.62 33.85 7.32L33.85 7.32L33.85 7.32Q33.64 7.03 33.29 6.89L33.29 6.89L33.29 6.89Q32.94 6.76 32.42 6.76L32.42 6.76L32.42 6.76Q32.21 6.76 31.99 6.79L31.99 6.79L31.99 6.79Q31.77 6.82 31.56 6.85L31.56 6.85L31.56 6.85Q31.36 6.89 31.20 6.93L31.20 6.93L31.20 6.93Q31.04 6.97 30.97 7L30.97 7L30.97 13.05Z"></path></g><!----><!----></svg>