<!--?xml version="1.0" standalone="no"?-->
              <svg id="sw-js-blob-svg" viewBox="0 0 100 100" xmlns="http://www.w3.org/2000/svg" version="1.1">
                    <defs> 
                        <linearGradient id="sw-gradient" x1="0" x2="1" y1="1" y2="0">
                            <stop id="stop1" stop-color="rgba(248, 117, 55, 1)" offset="0%"></stop>
                            <stop id="stop2" stop-color="rgba(251, 168, 31, 1)" offset="100%"></stop>
                        </linearGradient>
                    </defs>
                <path fill="url(#sw-gradient)" d="M19.1,-32.3C23.9,-26.7,26.1,-19.8,29.5,-13.2C33,-6.6,37.6,-0.3,38.1,6.5C38.7,13.2,35.1,20.3,30.2,26.5C25.3,32.7,19,38.1,12.3,38.6C5.5,39.2,-1.8,34.9,-8.8,31.9C-15.8,28.9,-22.5,27.1,-29,23.2C-35.5,19.2,-41.7,13,-42,6.5C-42.3,-0.1,-36.7,-7.2,-32.6,-14.3C-28.4,-21.5,-25.8,-28.8,-20.6,-34.1C-15.4,-39.5,-7.7,-43,-0.3,-42.6C7.2,-42.2,14.4,-37.9,19.1,-32.3Z" width="100%" height="100%" transform="translate(50 50)" stroke-width="0" style="transition: all 0.3s ease 0s;"></path>
              </svg>